<svg width="931" height="306" viewBox="0 0 931 306" fill="none" xmlns="http://www.w3.org/2000/svg">
<g clip-path="url(#clip0_1_62)">
<path d="M-538 101.722L-523.042 86.7419C-508.083 71.9862 -478.166 41.6894 -448.249 26.9338C-418.332 11.9537 -388.415 11.9537 -358.498 11.9537C-328.581 11.9537 -298.664 11.9537 -268.748 38.8842C-238.831 65.8146 -208.914 119.676 -178.997 146.606C-149.08 173.537 -119.163 173.537 -89.2459 167.533C-59.329 161.754 -29.412 149.411 0.504883 146.606C30.4218 143.801 60.3388 149.411 90.2557 131.626C120.173 113.504 150.09 71.9862 180.007 56.8378C209.923 41.6894 239.84 54.0325 269.757 74.7915C299.674 95.5504 329.591 125.847 359.508 128.652C389.425 131.458 419.342 107.893 449.259 83.7683C479.176 59.6431 509.093 36.0789 539.01 35.9106C568.927 36.0789 598.844 59.6431 628.761 56.8378C658.678 54.0325 688.594 23.7358 718.511 32.8809C748.428 41.6894 778.345 89.9398 808.262 104.696C838.179 119.676 868.096 101.722 883.055 92.7451L898.013 83.7683V-5.99998H883.055C868.096 -5.99998 838.179 -5.99998 808.262 -5.99998C778.345 -5.99998 748.428 -5.99998 718.511 -5.99998C688.594 -5.99998 658.678 -5.99998 628.761 -5.99998C598.844 -5.99998 568.927 -5.99998 539.01 -5.99998C509.093 -5.99998 479.176 -5.99998 449.259 -5.99998C419.342 -5.99998 389.425 -5.99998 359.508 -5.99998C329.591 -5.99998 299.674 -5.99998 269.757 -5.99998C239.84 -5.99998 209.923 -5.99998 180.007 -5.99998C150.09 -5.99998 120.173 -5.99998 90.2557 -5.99998C60.3388 -5.99998 30.4218 -5.99998 0.504883 -5.99998C-29.412 -5.99998 -59.329 -5.99998 -89.2459 -5.99998C-119.163 -5.99998 -149.08 -5.99998 -178.997 -5.99998C-208.914 -5.99998 -238.831 -5.99998 -268.748 -5.99998C-298.664 -5.99998 -328.581 -5.99998 -358.498 -5.99998C-388.415 -5.99998 -418.332 -5.99998 -448.249 -5.99998C-478.166 -5.99998 -508.083 -5.99998 -523.042 -5.99998H-538V101.722Z" fill="#7A0BC0"/>
<path d="M-53 101.722L-38.0415 86.7419C-23.0831 71.9862 6.83388 41.6894 36.7508 26.9338C66.6678 11.9537 96.5847 11.9537 126.502 11.9537C156.419 11.9537 186.336 11.9537 216.252 38.8842C246.169 65.8146 276.086 119.676 306.003 146.606C335.92 173.537 365.837 173.537 395.754 167.533C425.671 161.754 455.588 149.411 485.505 146.606C515.422 143.801 545.339 149.411 575.256 131.626C605.173 113.504 635.09 71.9862 665.007 56.8378C694.923 41.6894 724.84 54.0325 754.757 74.7915C784.674 95.5504 814.591 125.847 844.508 128.652C874.425 131.458 904.342 107.893 934.259 83.7683C964.176 59.6431 994.093 36.0789 1024.01 35.9106C1053.93 36.0789 1083.84 59.6431 1113.76 56.8378C1143.68 54.0325 1173.59 23.7358 1203.51 32.8809C1233.43 41.6894 1263.35 89.9398 1293.26 104.696C1323.18 119.676 1353.1 101.722 1368.05 92.7451L1383.01 83.7683V-5.99998H1368.05C1353.1 -5.99998 1323.18 -5.99998 1293.26 -5.99998C1263.35 -5.99998 1233.43 -5.99998 1203.51 -5.99998C1173.59 -5.99998 1143.68 -5.99998 1113.76 -5.99998C1083.84 -5.99998 1053.93 -5.99998 1024.01 -5.99998C994.093 -5.99998 964.176 -5.99998 934.259 -5.99998C904.342 -5.99998 874.425 -5.99998 844.508 -5.99998C814.591 -5.99998 784.674 -5.99998 754.757 -5.99998C724.84 -5.99998 694.923 -5.99998 665.007 -5.99998C635.09 -5.99998 605.173 -5.99998 575.256 -5.99998C545.339 -5.99998 515.422 -5.99998 485.505 -5.99998C455.588 -5.99998 425.671 -5.99998 395.754 -5.99998C365.837 -5.99998 335.92 -5.99998 306.003 -5.99998C276.086 -5.99998 246.169 -5.99998 216.252 -5.99998C186.336 -5.99998 156.419 -5.99998 126.502 -5.99998C96.5847 -5.99998 66.6678 -5.99998 36.7508 -5.99998C6.83388 -5.99998 -23.0831 -5.99998 -38.0415 -5.99998H-53V101.722Z" fill="#7A0BC0"/>
</g>
<defs>
<clipPath id="clip0_1_62">
<rect width="1201" height="394" fill="white" transform="matrix(-1 0 0 1 1201 -88)"/>
</clipPath>
</defs>
</svg>
