<svg width="895" height="291" viewBox="0 0 895 291" fill="none" xmlns="http://www.w3.org/2000/svg">
<path d="M1101 19L1082.65 7.63125C1064.3 -3.3125 1027.6 -26.6875 990.9 -15C954.2 -3.3125 917.5 41.3125 880.8 81.3687C844.1 121 807.4 155 770.7 177.631C734 200.688 697.3 211.312 660.6 200.369C623.9 189 587.2 155 550.5 143.631C513.8 132.688 477.1 143.312 440.4 132.369C403.7 121 367 87 330.3 75.6313C293.6 64.6875 256.9 75.3125 220.2 87C183.5 98.6875 146.8 109.312 110.1 109.631C73.4 109.312 36.7 98.6875 18.35 92.6313L0 87V-49H18.35C36.7 -49 73.4 -49 110.1 -49C146.8 -49 183.5 -49 220.2 -49C256.9 -49 293.6 -49 330.3 -49C367 -49 403.7 -49 440.4 -49C477.1 -49 513.8 -49 550.5 -49C587.2 -49 623.9 -49 660.6 -49C697.3 -49 734 -49 770.7 -49C807.4 -49 844.1 -49 880.8 -49C917.5 -49 954.2 -49 990.9 -49C1027.6 -49 1064.3 -49 1082.65 -49H1101V19Z" fill="#7A0BC0"/>
</svg>
